<svg xmlns="http://www.w3.org/2000/svg" width="899.94" height="136.00" viewBox="0 0 899.94 136.00" role="img" aria-label="SysteMind Inc. for-light-background horizontal lockup">
  <title>SysteMind Inc. for-light-background horizontal lockup</title>
  <g transform="translate(0 0) scale(0.680000)" shape-rendering="geometricPrecision">
    <path d="M 124.24195557550456 7.669274870912088 C 126.31486802516443 7.506735973142379 128.45641325915747 7.6075007416220455 130.4983304801657 7.941465803434226 C 132.27946462962257 8.232778580563089 133.98479367196978 8.70152913532564 135.6110447960657 9.343131383360726 C 137.11534682115163 9.936621248928331 138.5519860270761 10.678011225200473 139.92366802969778 11.610989170318758 C 141.2044128467272 12.482114303789361 142.4285277824327 13.520266393273598 143.53036874728062 14.639944227020845 C 145.828162983477 16.974935713869733 147.59419380070668 19.664478608504158 148.63407788561506 22.69019461077111 C 149.87355291656996 26.296653724818388 150.08138339540287 30.380717625367097 149.24831871382824 34.10714526784277 C 148.52386859164963 37.347723125229116 147.01225211291435 40.31784220737273 144.9069992394072 42.95575906008314 C 143.94698566703548 44.158672027574454 142.86352902088342 45.29250556415642 141.69828822146286 46.295318456827026 C 140.48276929914852 47.341400989457206 139.1782562708207 48.24491231962081 137.8602690048341 49.11019445951516 C 135.1873571326134 50.86500876177081 132.4590272340612 52.46259069759284 129.70712296396184 54.03199393331439 C 126.95798349855545 55.599820408725485 124.18531700757374 57.13952477718593 121.41522821502394 58.6748440450508 C 118.60464770841727 60.232605809686014 115.7967208099252 61.78585333852864 112.9817088630215 63.332462830076764 C 110.14827718705772 64.88919239512133 107.30766743881863 66.43919676808567 104.46743485099847 67.98198444219244 C 101.62689291156063 69.52494015319336 98.7867282147051 71.06067759319853 95.93168506440941 72.57957773029551 C 93.1173465095285 74.07682277767887 90.2885507237233 75.55770720147554 87.46325754255874 77.02410802299187 C 84.57815837001893 78.52154971328206 81.6967116583209 80.00388813169185 78.79972451651105 81.50346723377359 C 75.99846511231392 82.95349440214399 73.18267534209302 84.41964168060474 70.83694183807816 86.65779154877056 C 69.70415495267866 87.73862482069913 68.68098784814575 88.99949346455233 67.91532114484995 90.33694495442785 C 67.02930549774048 91.8846196047408 66.48810089733163 93.53484404204207 66.34038858201737 95.33725330156074 C 66.2586655983668 96.33445019833869 66.29738829778124 97.37822997757314 66.43397482738206 98.33792914670211 C 66.55769422073432 99.20721983995202 66.7617074177245 100.00752537305941 67.12096795704363 100.88136990113735 C 67.45739150044352 101.6996670430214 67.92995258447962 102.58245107251307 67.94812080815126 103.10332445221133 C 67.95334135876742 103.252994881884 67.92104395208261 103.37278335369577 67.74819930372921 103.35515954634448 C 67.63440837711332 103.34355705018329 67.4597022441269 103.27239808572232 67.29430037338368 103.20367532839758 C 66.89276713780376 103.03684244444904 66.54606716703996 102.88436697945085 66.19867926011533 102.7327909270306 C 63.154576243912636 101.40455494310892 60.05764847930003 100.14538240701216 57.089638329202344 98.66757163929552 C 54.25813278363544 97.25772828550832 51.543959199330715 95.64889542497772 49.009088357211276 93.60163483304214 C 47.81059594499934 92.63368560088175 46.652185205496096 91.56772940785498 45.60704640923307 90.43039063217591 C 44.53184718484127 89.26033955967404 43.57652949604006 88.01474062087809 42.708420239067614 86.7232792218681 C 40.84571775401212 83.95218982503482 39.38452556868331 80.96994825219502 38.57302449639086 77.72166405076956 C 37.62289349861577 73.91847066663904 37.56338918776441 69.75057371780932 38.382043965943495 65.89779514081111 C 39.09043799135044 62.563929147587324 40.45637080672547 59.46601419728853 42.32630182596544 56.65630484310747 C 43.17455278100355 55.3817451836649 44.12651514429744 54.16649170430661 45.182415601197604 53.0223307668108 C 46.238072004055056 51.87843428331771 47.39761845890605 50.805597481738985 48.60873553152511 49.83557446505294 C 51.06375472890325 47.86926981812644 53.730678273519985 46.325428366672874 56.3854741772071 44.756167111383775 C 59.15337434815639 43.12004943817725 61.90809149951913 41.45629986410927 64.67391030375394 39.81485977704891 C 67.4216272951692 38.1841626356815 70.18030109814059 36.57548391336149 72.93616806984218 34.96107965089255 C 75.69203540940408 33.34667517292873 78.4450959169469 31.72654515328745 81.20474588401065 30.11923146127576 C 83.98272820764673 28.501240383335706 86.76738782916102 26.89623647634881 89.53622105483635 25.26071509548619 C 92.28663050100921 23.636076452165554 95.0214234678762 21.981325109523123 97.75678375331549 20.326991225129756 C 100.49199306986088 18.67274864606021 103.22776964235786 17.018923479160623 105.93822272475602 15.317514660894567 C 108.64897519254318 13.615917912077633 111.33439857566752 11.866726999528723 114.2151719018736 10.491036823924523 C 117.337250765472 9.00011312609568 120.68877687700646 7.947882753906589 124.24195557550456 7.669274870912088 Z" fill="#002147"/>
    <path d="M 103.31360559476235 74.78545993491817 C 105.02865547210475 74.60180517157188 106.82449016064496 74.65413609159025 108.53668678319791 74.86333885367792 C 110.01308561671983 75.04373093589992 111.4272968072724 75.34076237355649 112.81993978161033 75.72541294800376 C 115.42854795392064 76.44591536712812 117.96148114107149 77.47384130289059 120.49524274590433 78.45436576270096 C 123.02702945604211 79.43412597044028 125.55964329297483 80.36655856587814 128.08084492314384 81.34606065382455 C 130.56176454575555 82.30991293810716 133.03163372097853 83.31934264324754 135.46439722923822 84.38671487230134 C 137.85492582681903 85.43555658221419 140.2096259477062 86.54034641373495 142.45920674252443 87.86954373293361 C 144.59683314932778 89.13259118422594 146.6395427779717 90.5982658452024 148.55696686214512 92.28884064266315 C 150.40758194083082 93.92051056777291 152.14149004749473 95.76168123015678 153.61036123614986 97.71025112974732 C 155.17216714758194 99.78210604222981 156.4343376925858 101.97538030276503 157.4707540893808 104.29529418656583 C 158.59670118319417 106.81561353257443 159.45620598717426 109.48539702563954 159.92921063184556 112.2664360094073 C 160.46837238835735 115.4364468757021 160.50535690462897 118.7510113053966 160.01895789130174 121.93302437622715 C 159.59174308732239 124.72785547799212 158.76076458636746 127.42042996741192 157.6192623335105 129.93606264499954 C 156.56982692031315 132.2487992268586 155.25793780105198 134.41198514153507 153.65267575763778 136.4630442218274 C 152.15631790127557 138.37495535263 150.40504287270397 140.18943739848038 148.55152284977143 141.78761405356343 C 146.6136408621679 143.45853085757713 144.56399482133102 144.89300413338208 142.4196861616099 146.1321001109313 C 140.1435292421097 147.44738504924345 137.7607106684093 148.54252748494213 135.2568339005787 149.44118605142035 C 134.57534751112135 149.6857761964676 133.884893388793 149.9158112354744 133.14417789917053 150.12697817153085 C 132.4956462377243 150.31186487337774 131.80858503732742 150.48228759728914 131.59543645811812 150.24528025042164 C 131.47719879599802 150.11380766588528 131.50479052370272 149.8569632808067 131.60401835566034 149.54447182742308 C 131.69296151759966 149.2643691849021 131.83946061063932 148.9395569805937 131.97305391283106 148.62566816313006 C 132.2406912641686 147.99683145992574 132.45653112742286 147.4118358515125 132.64266669178008 146.81218464137876 C 133.55218754521653 143.88208752485824 133.75248034234457 140.60206920809978 133.1425680087482 137.55244872698648 C 132.61537504397046 134.91643306649803 131.48284208275894 132.45255779332487 129.80626967590527 130.36492499571602 C 128.27197804867077 128.4544572407788 126.28206766844386 126.85908268158775 124.22346214574596 125.52411680946804 C 122.01741549499395 124.0935382170244 119.73248117121253 122.96200602903917 117.34172784449335 121.98495660376464 C 114.82743236719323 120.95741816070931 112.19609892649031 120.10074078633299 109.58626827716553 119.24780363661726 C 106.96454444981913 118.39097959356404 104.36451983979933 117.53792994176696 101.78163947954229 116.61827830508221 C 99.23233363275334 115.7105810959958 96.69972922101844 114.73800214869026 94.18222863638033 113.73242452529526 C 91.70495271480773 112.74291403663463 89.24230181792997 111.72145095413067 86.81633286550917 110.66030308279771 C 84.43231646618705 109.61750576058171 82.08372429116405 108.5363843287376 79.79219584072858 107.23914524854514 C 77.61516658049595 106.00672440098394 75.48964098592822 104.5792435361303 73.90103711524038 102.62453515576532 C 72.12701812408326 100.4416814859955 71.02256957329848 97.60134657820386 71.34856424126816 94.83917755633765 C 71.5128171785706 93.4474542560979 72.04021164600289 92.07557465118751 72.7778671537071 90.85125680469895 C 73.40431570636332 89.81151381503301 74.18240728788503 88.87819430716314 75.06463654484469 88.0781070695579 C 76.95923451330603 86.35991007824221 79.33409545115997 85.2561547428125 81.6004084973063 84.09661795045908 C 82.77346771914328 83.49643373070074 83.9174451284149 82.88130471699606 85.09053235830677 82.2986767338395 C 86.22331605909966 81.73606598663494 87.38324370059927 81.20376137073957 88.52618803072325 80.64144803192596 C 90.87100989302152 79.48782700633406 93.1443505402296 78.20790199148706 95.51507872103069 77.12313114765105 C 97.97420723295069 75.99791108548632 100.5381215110312 75.08267045882367 103.31360559476235 74.78545993491817 Z" fill="#2E6FA8"/>
    <path d="M 101.98091708830212 122.48666490166029 C 103.4461969803555 122.34140821057899 104.96107354570512 122.43541885128333 106.42992425194379 122.68194540755199 C 107.7554683823404 122.9044199097331 109.04352945837054 123.25110203052832 110.30776658667304 123.6454426396087 C 112.59074337064996 124.35754833193134 114.79603113581251 125.22506660471186 116.9266897947865 126.23201656080639 C 118.95695088514063 127.19151859421842 120.91945027994015 128.27762173218503 122.75503247711318 129.68471112542457 C 124.50271153020549 131.0244172209514 126.1353380561902 132.65510263627587 127.25456398165399 134.51864189233788 C 129.91964658992921 138.9560713229606 129.6737292364896 144.7137904470207 127.45454810012713 149.38558726993514 C 126.4945797377084 151.4065025851209 125.16536734616443 153.2242163165842 123.60243723455265 154.85589756414032 C 122.08509873765763 156.43998168484706 120.3474790185768 157.8487283818041 118.56513389338063 159.10864630007353 C 116.65542665161179 160.45859493714718 114.69437368638754 161.63768495098114 112.72651922791792 162.82100181225832 C 110.81597467158396 163.96985689043794 108.89901901361463 165.12269620378146 106.98162339777268 166.2761816605576 C 103.11026290328297 168.60515226601638 99.23710885312292 170.93675697416847 95.35425734354209 173.22764607355785 C 91.47125447420214 175.51862447546665 87.5785533893818 177.76888409423185 83.69352913355333 180.08514977484427 C 79.67061775056486 182.48362426533984 75.65593779833215 184.95287333321994 71.0339801427058 185.98028133013023 C 68.22304044724734 186.6051208758649 65.18748590024583 186.6966641778963 62.336034737898316 186.2372655108106 C 59.90200648657619 185.8451180495208 57.60212528533321 185.05152636676394 55.45865040459268 183.86878182876242 C 53.541225924730924 182.81076927589152 51.74895812593814 181.4413557538368 50.18556689088339 179.85933363493285 C 48.606757431857645 178.261709553571 47.261361175854795 176.44726268891375 46.25222888541944 174.4801067152781 C 45.07571403455191 172.18666289340158 44.35626522041397 169.68564955959272 44.1452566844433 167.0871520704349 C 43.92170936559587 164.33424378612878 44.26882388369383 161.47192149676968 45.139811736330415 158.89082020225314 C 45.87332003119018 156.7171283376995 46.97837395447845 154.7428862721094 48.39289389974968 152.89115608666668 C 49.699425368760686 151.18079225087462 51.26997546607577 149.574948511797 52.96003085802935 148.23513934087612 C 54.82485410067416 146.75678111987492 56.83517654686263 145.60232334110086 58.86004686493609 144.47401275512263 C 60.84544550996323 143.3676968154913 62.844830379058344 142.28651860734968 64.84166579016096 141.19816283607545 C 68.8353366123662 139.02145129352695 72.81880960260145 136.8160294984479 76.80182200306862 134.6222193142534 C 78.85224768826517 133.4928618586777 80.90255131186802 132.36658161373057 82.95838625822664 131.2402604301458 C 84.95514628317616 130.14630436201915 86.95712431034177 129.05230967421485 88.93960714525284 127.94748544617015 C 90.92224362718865 126.84257559168142 92.88538189490743 125.72683451825819 94.94595775926526 124.73323714305205 C 97.1681432350277 123.66171257842416 99.503649595248 122.73224233769545 101.98091708830212 122.48666490166029 Z" fill="#B9D9EB"/>
  </g>
  <path d="M260.3194580078125 -10.0Q199.7999267578125 -10.0 157.44012451171875 1.43994140625Q115.080322265625 12.8798828125 89.0003662109375 32.9598388671875Q62.92041015625 53.039794921875 51.140380859375 78.31982421875Q39.3603515625 103.599853515625 39.3603515625 130.280029296875Q39.3603515625 159.2796630859375 51.8201904296875 177.51953125Q64.280029296875 195.7593994140625 85.31982421875 204.619384765625Q106.359619140625 213.4793701171875 133.3194580078125 213.4793701171875Q134.5994873046875 162.759765625 151.65936279296875 124.99981689453125Q168.71923828125 87.2398681640625 199.69915771484375 66.539794921875Q230.6790771484375 45.8397216796875 273.3592529296875 45.8397216796875Q335.3194580078125 45.8397216796875 369.89959716796875 77.6197509765625Q404.479736328125 109.3997802734375 404.479736328125 160.68017578125Q404.479736328125 195.8802490234375 387.4598388671875 220.48028564453125Q370.43994140625 245.080322265625 334.780029296875 266.3603515625Q299.1201171875 287.640380859375 241.9200439453125 310.92041015625Q174.8802490234375 338.7203369140625 133.520263671875 370.520263671875Q92.1602783203125 402.3201904296875 73.240234375 442.64019775390625Q54.3201904296875 482.960205078125 54.3201904296875 534.0003662109375Q54.3201904296875 593.520263671875 85.340087890625 636.0001831054688Q116.3599853515625 678.4801025390625 169.99981689453125 701.2400512695312Q223.6396484375 724.0 291.3194580078125 724.0Q358.879150390625 724.0 403.97900390625 706.9200439453125Q449.078857421875 689.840087890625 471.798828125 663.2601318359375Q494.518798828125 636.68017578125 494.518798828125 606.960205078125Q494.518798828125 573.1602783203125 469.0589599609375 553.2404174804688Q443.59912109375 533.320556640625 391.759765625 533.320556640625Q391.759765625 565.4005126953125 380.35980224609375 596.0204467773438Q368.9598388671875 626.640380859375 344.4598388671875 646.9003295898438Q319.9598388671875 667.1602783203125 280.1197509765625 667.1602783203125Q229.679443359375 667.1602783203125 200.01934814453125 640.840087890625Q170.3592529296875 614.5198974609375 170.3592529296875 566.8397216796875Q170.3592529296875 534.0394287109375 184.31927490234375 508.87933349609375Q198.279296875 483.71923828125 233.89923095703125 461.1392822265625Q269.5191650390625 438.559326171875 333.2789306640625 412.3994140625Q398.398681640625 386.239501953125 440.2586669921875 355.57958984375Q482.11865234375 324.919677734375 502.3187255859375 287.01971435546875Q522.518798828125 249.1197509765625 522.518798828125 198.5596923828125Q522.518798828125 134.19970703125 490.53887939453125 87.71978759765625Q458.5589599609375 41.2398681640625 399.4591064453125 15.61993408203125Q340.3592529296875 -10.0 260.3194580078125 -10.0ZM590.1602783203125 -179.320556640625Q641.8802490234375 -179.320556640625 678.7002563476562 -165.94049072265625Q715.520263671875 -152.5604248046875 740.9802856445312 -128.580322265625Q766.4403076171875 -104.6002197265625 783.5403442382812 -72.2000732421875Q800.640380859375 -39.7999267578125 812.640380859375 -1.759765625L630.8802490234375 437.400146484375Q622.6002197265625 458.0401611328125 613.960205078125 468.64019775390625Q605.3201904296875 479.240234375 593.8601684570312 483.20025634765625Q582.400146484375 487.1602783203125 564.2000732421875 487.1602783203125H560.4801025390625V536.0H830.35888671875V487.1602783203125H826.638916015625Q795.9189453125 487.1602783203125 781.638916015625 476.92022705078125Q767.35888671875 466.68017578125 767.35888671875 444.56005859375Q767.35888671875 435.840087890625 769.7188720703125 426.1201171875Q772.078857421875 416.400146484375 776.078857421875 405.400146484375L841.879150390625 234.9598388671875Q850.7991943359375 213.3997802734375 858.499267578125 189.1396484375Q866.1993408203125 164.8795166015625 872.3994140625 143.119384765625Q878.5994873046875 121.3592529296875 880.8795166015625 106.1591796875Q886.4395751953125 132.6392822265625 895.0596923828125 158.239501953125Q903.6798095703125 183.8397216796875 911.5198974609375 207.0L976.0 396.960205078125Q980.280029296875 407.520263671875 983.0 421.36016845703125Q985.719970703125 435.2000732421875 985.719970703125 443.9200439453125Q985.719970703125 467.400146484375 970.4799194335938 477.1002197265625Q955.2398681640625 486.80029296875 923.6798095703125 487.1602783203125H919.9598388671875V536.0H1132.6396484375V487.1602783203125H1129.2796630859375Q1110.6396484375 486.80029296875 1097.2796630859375 480.26031494140625Q1083.919677734375 473.7203369140625 1074.0596923828125 457.4403076171875Q1064.19970703125 441.1602783203125 1053.2796630859375 412.400146484375L901.6396484375 -1.4801025390625Q875.9996337890625 -71.960205078125 852.359619140625 -117.06024169921875Q828.7196044921875 -162.1602783203125 798.3196411132812 -187.48028564453125Q767.919677734375 -212.80029296875 721.5797729492188 -222.98028564453125Q675.2398681640625 -233.1602783203125 604.2000732421875 -233.1602783203125H590.1602783203125ZM1347.8795166015625 -10.0Q1285.6400146484375 -10.0 1244.8601684570312 3.43994140625Q1204.080322265625 16.8798828125 1183.9403076171875 41.81982421875Q1163.80029296875 66.759765625 1163.80029296875 100.6798095703125Q1163.80029296875 128.3997802734375 1175.8802490234375 144.29974365234375Q1187.960205078125 160.19970703125 1205.8800659179688 166.73968505859375Q1223.7999267578125 173.2796630859375 1241.919677734375 173.2796630859375Q1241.919677734375 115.159912109375 1268.6595458984375 80.71978759765625Q1295.3994140625 46.2796630859375 1352.799560546875 46.2796630859375Q1403.9996337890625 46.2796630859375 1429.259765625 68.71978759765625Q1454.5198974609375 91.159912109375 1454.5198974609375 124.68017578125Q1454.5198974609375 147.520263671875 1443.1199340820312 162.62030029296875Q1431.719970703125 177.7203369140625 1405.219970703125 191.7803955078125Q1378.719970703125 205.8404541015625 1332.599853515625 223.2406005859375Q1278.0 244.440673828125 1241.9801025390625 266.3006591796875Q1205.960205078125 288.16064453125 1188.2002563476562 318.4605712890625Q1170.4403076171875 348.760498046875 1170.4403076171875 394.640380859375Q1170.4403076171875 470.2000732421875 1226.6201171875 508.5Q1282.7999267578125 546.7999267578125 1375.359619140625 546.7999267578125Q1430.9193115234375 546.7999267578125 1466.6591796875 533.5799560546875Q1502.3990478515625 520.3599853515625 1519.6190185546875 499.0Q1536.8389892578125 477.6400146484375 1536.8389892578125 453.0Q1536.8389892578125 422.7601318359375 1515.6390991210938 405.72015380859375Q1494.439208984375 388.68017578125 1451.51953125 388.68017578125Q1451.51953125 438.3201904296875 1427.9996337890625 465.42022705078125Q1404.479736328125 492.520263671875 1361.5596923828125 492.520263671875Q1317.7593994140625 492.520263671875 1296.4793701171875 473.80010986328125Q1275.1993408203125 455.0799560546875 1275.1993408203125 423.6798095703125Q1275.1993408203125 389.2796630859375 1302.2593994140625 370.2196044921875Q1329.3194580078125 351.1595458984375 1397.3994140625 326.3194580078125Q1450.7593994140625 306.4793701171875 1486.6392822265625 284.83935546875Q1522.5191650390625 263.1993408203125 1540.5390625 232.93939208984375Q1558.5589599609375 202.679443359375 1558.5589599609375 156.7196044921875Q1558.5589599609375 77.2796630859375 1502.759033203125 33.63983154296875Q1446.9591064453125 -10.0 1347.8795166015625 -10.0ZM1836.6396484375 -10.0Q1760.2796630859375 -10.0 1721.81982421875 25.03997802734375Q1683.3599853515625 60.0799560546875 1683.3599853515625 146.7999267578125V472.1602783203125H1608.0799560546875V519.0Q1635.07958984375 519.0 1659.239501953125 529.7398681640625Q1683.3994140625 540.479736328125 1698.679443359375 557.1197509765625Q1714.5994873046875 573.6798095703125 1726.1394653320312 598.9598388671875Q1737.679443359375 624.2398681640625 1744.679443359375 659.719970703125H1813.718505859375V536.0H1942.9185791015625V472.1602783203125H1813.718505859375V152.07958984375Q1813.718505859375 105.0394287109375 1831.2986450195312 82.83935546875Q1848.8787841796875 60.6392822265625 1883.5987548828125 60.6392822265625Q1902.3187255859375 60.6392822265625 1919.11865234375 62.999267578125Q1935.9185791015625 65.3592529296875 1951.9185791015625 68.71923828125V11.759765625Q1937.11865234375 4.6798095703125 1905.7188720703125 -2.66009521484375Q1874.319091796875 -10.0 1836.6396484375 -10.0ZM2264.8795166015625 -10.0Q2144 -10 2079.9801025390625 62.17999267578125Q2015.960205078125 134.3599853515625 2015.960205078125 264.719970703125Q2015.960205078125 405.0799560546875 2078.280029296875 476.43994140625Q2140.599853515625 547.7999267578125 2254.1595458984375 547.7999267578125Q2358.71923828125 547.7999267578125 2418.5390625 487.25994873046875Q2478.35888671875 426.719970703125 2478.35888671875 307.719970703125V258.4801025390625H2148.5987548828125Q2150.5987548828125 154.8798828125 2186.6588134765625 107.71978759765625Q2222.7188720703125 60.5596923828125 2291.8389892578125 60.5596923828125Q2343.47900390625 60.5596923828125 2377.819091796875 83.67962646484375Q2412.1591796875 106.799560546875 2429.439208984375 138.4793701171875Q2440.759033203125 134.7593994140625 2449.0989379882812 124.3194580078125Q2457.4388427734375 113.8795166015625 2457.4388427734375 98.359619140625Q2457.4388427734375 74.759765625 2437.35888671875 49.599853515625Q2417.2789306640625 24.43994140625 2374.8590698242188 7.219970703125Q2332.439208984375 -10.0 2264.8795166015625 -10.0ZM2344.960205078125 318.599853515625Q2344.960205078125 396.43994140625 2324.4200439453125 441.7000732421875Q2303.8798828125 486.960205078125 2254.679443359375 486.960205078125Q2207.9591064453125 486.960205078125 2180.8789672851562 443.80010986328125Q2153.798828125 400.6400146484375 2150.5987548828125 318.599853515625Z" fill="#002147" opacity="1.0" transform="translate(158.00 108.35) scale(0.1040000 -0.1040000)"/>
  <path d="M2548.8802490234375 0.0V48.8397216796875H2569.0799560546875Q2590.0 48.8397216796875 2606.5200805664062 53.69970703125Q2623.0401611328125 58.5596923828125 2632.9202270507812 72.3397216796875Q2642.80029296875 86.1197509765625 2642.80029296875 111.5198974609375V601.840087890625Q2642.80029296875 627.8802490234375 2633.1002197265625 641.4802856445312Q2623.400146484375 655.080322265625 2608.1400146484375 660.1203002929688Q2592.8798828125 665.1602783203125 2574.8397216796875 665.1602783203125H2548.8802490234375V714.0H2814.3187255859375L2995.759765625 197.7977294921875L3171.9609375 714.0H3432.119384765625V665.1602783203125H3404.719970703125Q3387.3997802734375 665.1602783203125 3372.1796264648438 659.9802856445312Q3356.95947265625 654.80029296875 3347.7593994140625 641.4202270507812Q3338.559326171875 628.0401611328125 3338.559326171875 601.7999267578125V111.840087890625Q3338.559326171875 86.599853515625 3347.3994140625 72.8997802734375Q3356.239501953125 59.19970703125 3372.359619140625 54.01971435546875Q3388.479736328125 48.8397216796875 3408.31982421875 48.8397216796875H3432.119384765625V0.0H3132.28076171875V48.8397216796875H3139.6005859375Q3161.2406005859375 48.8397216796875 3175.66064453125 53.87969970703125Q3190.0806884765625 58.919677734375 3197.8207397460938 72.419677734375Q3205.560791015625 85.919677734375 3206.2008056640625 111.1197509765625V623.880615234375L2994.1201171875 0.0H2931.1204833984375L2712.43994140625 623.320556640625V116.5198974609375Q2712.43994140625 87.31982421875 2721.1199340820312 72.71978759765625Q2729.7999267578125 58.1197509765625 2746.2999267578125 53.479736328125Q2762.7999267578125 48.8397216796875 2785.5198974609375 48.8397216796875H2790.6798095703125V0.0ZM3476.0401611328125 0.0V48.8397216796875H3488.68017578125Q3509.6002197265625 48.8397216796875 3526.4802856445312 54.23968505859375Q3543.3603515625 59.6396484375 3553.6004028320312 74.67962646484375Q3563.8404541015625 89.7196044921875 3563.8404541015625 118.359619140625V419.8802490234375Q3563.8404541015625 448.080322265625 3553.42041015625 462.40032958984375Q3543.0003662109375 476.7203369140625 3526.1203002929688 481.9403076171875Q3509.240234375 487.1602783203125 3488.68017578125 487.1602783203125H3479.92041015625V536.0H3693.8389892578125V120.1197509765625Q3693.8389892578125 90.919677734375 3703.759033203125 75.419677734375Q3713.6790771484375 59.919677734375 3731.0591430664062 54.37969970703125Q3748.439208984375 48.8397216796875 3768.999267578125 48.8397216796875H3781.279296875V0.0ZM3624.479736328125 629.8802490234375Q3592.9200439453125 629.8802490234375 3571.3802490234375 646.2201538085938Q3549.8404541015625 662.56005859375 3549.8404541015625 698.0Q3549.8404541015625 735.159912109375 3571.3802490234375 750.6398315429688Q3592.9200439453125 766.1197509765625 3624.479736328125 766.1197509765625Q3654.679443359375 766.1197509765625 3677.0792236328125 750.6398315429688Q3699.47900390625 735.159912109375 3699.47900390625 698.0Q3699.47900390625 662.56005859375 3677.0792236328125 646.2201538085938Q3654.679443359375 629.8802490234375 3624.479736328125 629.8802490234375ZM3812.960205078125 0.0V48.8397216796875H3819.520263671875Q3842.520263671875 48.8397216796875 3859.7603149414062 53.65972900390625Q3877.0003662109375 58.479736328125 3886.92041015625 73.6197509765625Q3896.8404541015625 88.759765625 3896.8404541015625 119.039794921875V420.960205078125Q3896.8404541015625 449.8802490234375 3887.2803955078125 464.020263671875Q3877.7203369140625 478.1602783203125 3861.1602783203125 482.6602783203125Q3844.6002197265625 487.1602783203125 3822.6002197265625 487.1602783203125H3817.960205078125V536.0H4010.198974609375L4023.198974609375 461.1197509765625H4028.198974609375Q4054.879150390625 508.1201171875 4091.3992309570312 527.9600219726562Q4127.9193115234375 547.7999267578125 4182.3990478515625 547.7999267578125Q4261.759033203125 547.7999267578125 4304.999084472656 501.83990478515625Q4348.2391357421875 455.8798828125 4348.2391357421875 353.599853515625V120.1197509765625Q4348.2391357421875 89.479736328125 4356.2991943359375 74.15972900390625Q4364.3592529296875 58.8397216796875 4379.9193115234375 53.8397216796875Q4395.4793701171875 48.8397216796875 4417.4793701171875 48.8397216796875H4422.119384765625V0.0H4218.2406005859375V334.92041015625Q4218.2406005859375 399.5604248046875 4198.600402832031 435.200439453125Q4178.960205078125 470.8404541015625 4128.3997802734375 470.8404541015625Q4090.5994873046875 470.8404541015625 4068.4193115234375 448.88043212890625Q4046.2391357421875 426.92041015625 4036.7190551757812 391.0003662109375Q4027.198974609375 355.080322265625 4027.198974609375 313.1602783203125V114.759765625Q4027.198974609375 86.479736328125 4036.5790405273438 72.3397216796875Q4045.9591064453125 58.19970703125 4062.5191650390625 53.51971435546875Q4079.0792236328125 48.8397216796875 4101.0792236328125 48.8397216796875H4105.71923828125V0.0ZM4695.33856370714 -10.0Q4629.4485592312285 -10.0 4584.0243894788955 19.0Q4538.6002197265625 48.0 4514.920227050781 109.5Q4491.240234375 171.0 4491.240234375 267.0Q4491.240234375 364.0 4514.920227050781 425.67999267578125Q4538.6002197265625 487.3599853515625 4583.920227050781 517.219970703125Q4629.240234375 547.0799560546875 4694.090603736139 547.0799560546875Q4751.080322265625 547.0799560546875 4786.140380859375 524.5598754882812Q4821.200439453125 502.039794921875 4842.8404541015625 466.6396484375H4848.48046875Q4846.200439453125 490.919677734375 4845.0604248046875 521.5996704101562Q4843.92041015625 552.2796630859375 4843.92041015625 578.07958984375V646.7601318359375Q4843.92041015625 675.2957846431409 4832.600402832031 689.0880168332892Q4821.2803955078125 702.8802490234375 4802.879794448169 707.020263671875Q4784.479193388526 711.1602783203125 4762.597397533816 711.1602783203125H4754.640380859375V760.0H4974.2789306640625V121.8795166015625Q4974.2789306640625 92.1595458984375 4984.518981933594 76.07958984375Q4994.759033203125 59.9996337890625 5012.359069824219 54.419677734375Q5029.9591064453125 48.8397216796875 5052.6790771484375 48.8397216796875H5060.6790771484375V0.0H4873.31982421875L4853.68017578125 82.4403076171875H4848.960205078125Q4826.960205078125 39.68017578125 4790.6002197265625 14.840087890625Q4754.240234375 -10.0 4695.33856370714 -10.0ZM4728.4395751953125 60.8397216796875Q4794.9200439453125 60.8397216796875 4819.420227050781 111.92006113831427Q4843.92041015625 163.00040059694103 4843.92041015625 268.0799560546875Q4843.92041015625 368.840087890625 4819.420227050781 422.900146484375Q4794.9200439453125 476.960205078125 4728.027670076578 476.960205078125Q4690.771158048422 476.960205078125 4667.90920748569 452.65893440957393Q4645.047256922958 428.3576637410229 4634.463020551322 381.6992240574049Q4623.8787841796875 335.0407843737869 4623.8787841796875 266.99722650184395Q4623.8787841796875 163.9598388671875 4647.91090146957 112.3997802734375Q4671.943018759451 60.8397216796875 4728.4395751953125 60.8397216796875Z" fill="#2E6FA8" opacity="1.0" transform="translate(158.00 108.35) scale(0.1040000 -0.1040000)"/>
  <path d="M5355.8802490234375 0.0V48.8397216796875H5383.2796630859375Q5401.2398681640625 48.8397216796875 5416.320007324219 54.01971435546875Q5431.400146484375 59.19970703125 5440.6002197265625 72.8997802734375Q5449.80029296875 86.599853515625 5449.80029296875 111.840087890625V600.0Q5449.80029296875 626.960205078125 5440.6002197265625 640.8802490234375Q5431.400146484375 654.80029296875 5416.320007324219 659.9802856445312Q5401.2398681640625 665.1602783203125 5383.2796630859375 665.1602783203125H5355.8802490234375V714.0H5680.7188720703125V665.1602783203125H5652.5994873046875Q5634.1993408203125 665.1602783203125 5618.979187011719 659.80029296875Q5603.759033203125 654.4403076171875 5595.098937988281 640.7002563476562Q5586.4388427734375 626.960205078125 5586.4388427734375 599.6400146484375V112.56005859375Q5586.4388427734375 87.6798095703125 5595.458923339844 73.6197509765625Q5604.47900390625 59.5596923828125 5619.699157714844 54.19970703125Q5634.9193115234375 48.8397216796875 5652.5994873046875 48.8397216796875H5680.7188720703125V0.0ZM5727.960205078125 0.0V48.8397216796875H5734.520263671875Q5757.520263671875 48.8397216796875 5774.760314941406 53.65972900390625Q5792.0003662109375 58.479736328125 5801.92041015625 73.6197509765625Q5811.8404541015625 88.759765625 5811.8404541015625 119.039794921875V420.960205078125Q5811.8404541015625 449.8802490234375 5802.2803955078125 464.020263671875Q5792.7203369140625 478.1602783203125 5776.1602783203125 482.6602783203125Q5759.6002197265625 487.1602783203125 5737.6002197265625 487.1602783203125H5732.960205078125V536.0H5925.198974609375L5938.198974609375 461.1197509765625H5943.198974609375Q5969.879150390625 508.1201171875 6006.399230957031 527.9600219726562Q6042.9193115234375 547.7999267578125 6097.3990478515625 547.7999267578125Q6176.759033203125 547.7999267578125 6219.999084472656 501.83990478515625Q6263.2391357421875 455.8798828125 6263.2391357421875 353.599853515625V120.1197509765625Q6263.2391357421875 89.479736328125 6271.2991943359375 74.15972900390625Q6279.3592529296875 58.8397216796875 6294.9193115234375 53.8397216796875Q6310.4793701171875 48.8397216796875 6332.4793701171875 48.8397216796875H6337.119384765625V0.0H6133.2406005859375V334.92041015625Q6133.2406005859375 399.5604248046875 6113.600402832031 435.200439453125Q6093.960205078125 470.8404541015625 6043.3997802734375 470.8404541015625Q6005.5994873046875 470.8404541015625 5983.4193115234375 448.88043212890625Q5961.2391357421875 426.92041015625 5951.719055175781 391.0003662109375Q5942.198974609375 355.080322265625 5942.198974609375 313.1602783203125V114.759765625Q5942.198974609375 86.479736328125 5951.579040527344 72.3397216796875Q5960.9591064453125 58.19970703125 5977.5191650390625 53.51971435546875Q5994.0792236328125 48.8397216796875 6016.0792236328125 48.8397216796875H6020.71923828125V0.0ZM6647.5596923828125 -10.0Q6576.8798828125 -10.0 6522.679992675781 16.9200439453125Q6468.4801025390625 43.840087890625 6437.720153808594 104.340087890625Q6406.960205078125 164.840087890625 6406.960205078125 265.719970703125Q6406.960205078125 373.43994140625 6438.440124511719 434.93994140625Q6469.9200439453125 496.43994140625 6523.479919433594 522.1199340820312Q6577.039794921875 547.7999267578125 6643.6396484375 547.7999267578125Q6700.0390625 547.7999267578125 6742.5589599609375 535.0Q6785.078857421875 522.2000732421875 6808.9189453125 498.9801025390625Q6832.759033203125 475.7601318359375 6832.759033203125 444.0Q6832.759033203125 422.0799560546875 6822.3990478515625 404.4801025390625Q6812.0390625 386.8802490234375 6787.319274902344 377.10040283203125Q6762.5994873046875 367.320556640625 6718.56005859375 367.320556640625Q6718.56005859375 401.1204833984375 6712.1400146484375 429.10040283203125Q6705.719970703125 457.080322265625 6690.2398681640625 474.020263671875Q6674.759765625 490.960205078125 6646.1595458984375 490.960205078125Q6613.9193115234375 490.960205078125 6589.919128417969 471.3201904296875Q6565.9189453125 451.68017578125 6552.758850097656 402.94012451171875Q6539.5987548828125 354.2000732421875 6539.5987548828125 266.719970703125Q6539.5987548828125 197.8798828125 6553.118835449219 152.13983154296875Q6566.638916015625 106.3997802734375 6595.319091796875 83.759765625Q6623.999267578125 61.1197509765625 6670.4395751953125 61.1197509765625Q6703.95947265625 61.1197509765625 6731.579406738281 71.19970703125Q6759.1993408203125 81.2796630859375 6779.599304199219 98.89959716796875Q6799.999267578125 116.51953125 6810.999267578125 137.95947265625Q6821.879150390625 131.239501953125 6827.09912109375 119.9395751953125Q6832.319091796875 108.6396484375 6832.319091796875 94.6396484375Q6832.319091796875 70.5596923828125 6812.419128417969 46.3997802734375Q6792.5191650390625 22.2398681640625 6751.959289550781 6.11993408203125Q6711.3994140625 -10.0 6647.5596923828125 -10.0ZM7002.679443359375 -7.719970703125Q6971.776785714285 -7.719970703125 6949.788356236049 8.945382091486566Q6927.7999267578125 25.610734886098133 6927.7999267578125 67.82962863244742Q6927.7999267578125 111.1595458984375 6949.788356236049 127.27947998046875Q6971.776785714285 143.3994140625 7002.679443359375 143.3994140625Q7032.999267578125 143.3994140625 7055.279113769531 127.27438584813532Q7077.5589599609375 111.14935763377063 7077.5589599609375 67.77859209168632Q7077.5589599609375 25.5198974609375 7055.279113769531 8.89996337890625Q7032.999267578125 -7.719970703125 7002.679443359375 -7.719970703125Z" fill="#002147" opacity="0.55" transform="translate(158.00 108.35) scale(0.1040000 -0.1040000)"/>
</svg>
